<?xml version="1.0" standalone="no"?><!DOCTYPE svg PUBLIC "-//W3C//DTD SVG 1.1//EN" "http://www.w3.org/Graphics/SVG/1.1/DTD/svg11.dtd"><svg t="1744962424248" class="icon" viewBox="0 0 1024 1024" version="1.1" xmlns="http://www.w3.org/2000/svg" p-id="2865" xmlns:xlink="http://www.w3.org/1999/xlink" width="48" height="48"><path d="M553.5 428.4c-16.5 0-31.7 7.6-41.5 20.5-9.8-12.8-25-20.5-41.5-20.5-3.6 0-7.1 0.4-10.4 1.1-11.3 2.3-21.4 8.2-28.8 16.6-8.3 9.3-13.3 21.5-13.4 34.9-0.1 31.2 15 49.6 27.1 64.4l2.6 3.2c9.4 11.6 31.6 29.1 46.5 40.3 4.2 3.2 7.8 5.8 10.4 7.7 2.2 1.6 3.7 2.6 4 2.9 1.1 0.8 2.4 1.2 3.6 1.2s2.5-0.4 3.6-1.2c1.9-1.3 46.4-33.2 60.8-50.9l2.6-3.2c11.9-14.6 26.7-32.6 27.1-62.9V480c-0.7-28.5-24.1-51.6-52.7-51.6z" fill="#FF95A2" p-id="2866"></path><path d="M512 95.8C282.1 95.8 95.8 282.2 95.8 512c0 229.9 186.3 416.2 416.2 416.2 229.8 0 416.2-186.3 416.2-416.2 0-229.8-186.4-416.2-416.2-416.2zM749.7 625c0 20.1-16.4 36.5-36.5 36.5H596.6L527.1 731c-8.3 8.3-21.8 8.3-30.1 0l-69.5-69.5H310.8c-20.1 0-36.5-16.4-36.5-36.5V374.3c0-20.1 16.4-36.5 36.5-36.5h402.4c20.1 0 36.5 16.4 36.5 36.5V625z" fill="#FF95A2" p-id="2867"></path></svg>